<svg width="44" height="29" viewBox="0 0 44 29" fill="none" xmlns="http://www.w3.org/2000/svg">
<path fill-rule="evenodd" clip-rule="evenodd" d="M0 12.6557C0 11.2966 4.85049 10.1875 10.9392 10.1258C8.9765 6.2403 8.95871 2.88819 11.0498 2.32548C13.0714 1.7815 16.4022 4.02237 19.0177 7.51482C19.0971 7.37099 19.179 7.22669 19.2635 7.08201C21.8772 2.605 25.9027 -0.531965 28.2549 0.0754115C30.2034 0.578551 30.3923 3.49329 28.914 7.02387C35.7864 5.83232 41.8309 6.15056 42.4762 7.7521C42.9598 8.95241 40.2749 10.537 36.0166 11.7833C41.0347 12.906 44.3924 14.5612 43.963 15.8841C43.5384 17.1919 39.5403 17.78 34.3593 17.451C38.3177 20.3597 40.2531 23.2594 38.746 24.3152C37.2082 25.3924 32.6018 24.1888 27.9321 21.6048C28.3722 25.1459 27.4042 27.8813 25.3944 28.1403C23.463 28.3892 21.1398 26.2779 19.5588 23.1009C16.4455 26.1385 12.961 27.9286 11.1235 27.2601C9.26856 26.5853 9.68048 23.6193 11.9016 20.1967C6.30079 21.4663 1.51219 21.4996 0.651628 20.1577C-0.161241 18.8901 2.78335 16.7897 7.54065 15.0357C3.14102 14.6813 0 13.7495 0 12.6557ZM24.95 19.1061C25.0561 18.9735 25.1224 18.81 25.1489 18.6155V18.5227C25.1047 18.1956 25.0472 17.8729 24.9765 17.5547C24.9146 17.2276 24.8395 16.9094 24.7511 16.6C24.9102 16.5646 25.0428 16.4984 25.1489 16.4011C25.2638 16.3039 25.3433 16.189 25.3876 16.0564C25.4406 15.9238 25.4538 15.7867 25.4273 15.6453C25.4096 15.5039 25.3389 15.3713 25.2152 15.2475C25.0737 15.0972 24.9146 15.0177 24.7378 15.0088C24.561 15 24.3798 15 24.1942 15.0088C23.8848 14.2221 23.5356 13.453 23.1467 12.7017C22.7577 11.9414 22.2627 11.2608 21.6616 10.6597C21.5113 10.5182 21.3257 10.4475 21.1047 10.4475C20.9367 10.4475 20.7953 10.4917 20.6804 10.5801C20.5655 10.6597 20.4638 10.7613 20.3754 10.8851C20.2958 11 20.2251 11.1282 20.1632 11.2696C20.1014 11.4111 20.0395 11.5437 19.9776 11.6674C19.9246 11.7823 19.8671 11.8972 19.8052 12.0122C19.7522 12.1271 19.6992 12.2464 19.6461 12.3702C19.0185 13.7934 18.5058 15.2652 18.108 16.7856C18.0373 17.0508 17.9621 17.316 17.8826 17.5812C17.803 17.8464 17.75 18.116 17.7235 18.3901C17.6969 18.6022 17.7235 18.7923 17.803 18.9602C17.8914 19.1193 18.0019 19.2387 18.1345 19.3182C18.2759 19.3978 18.4306 19.4243 18.5986 19.3978C18.7754 19.3801 18.9389 19.2829 19.0892 19.1061C19.213 18.9646 19.2925 18.8011 19.3279 18.6155C19.3632 18.421 19.403 18.2354 19.4472 18.0586C19.5003 17.8287 19.5533 17.5945 19.6063 17.3558C19.6682 17.1171 19.7389 16.8829 19.8185 16.653C20.3577 16.6442 20.8969 16.6398 21.4362 16.6398C21.9754 16.6398 22.519 16.6354 23.0671 16.6265C23.2351 17.1392 23.3632 17.6387 23.4516 18.1249C23.487 18.2928 23.5091 18.4652 23.5179 18.642C23.5356 18.81 23.6019 18.9646 23.7168 19.1061C23.8494 19.274 23.9909 19.3757 24.1411 19.4111C24.3003 19.4553 24.4461 19.4508 24.5787 19.3978C24.7201 19.3448 24.8439 19.2475 24.95 19.1061ZM21.9003 13.8287C22.0947 14.2177 22.2759 14.6111 22.4439 15.0088C22.0815 15.0177 21.7411 15.0221 21.4229 15.0221C21.1135 15.0221 20.7511 15.0265 20.3356 15.0354C20.4682 14.6376 20.6096 14.2486 20.7599 13.8685C20.919 13.4796 21.087 13.0906 21.2638 12.7017C21.5025 13.0553 21.7146 13.4309 21.9003 13.8287Z" fill="#E1FF6B"/>
</svg>
