<svg width="313" height="201" viewBox="0 0 313 201" fill="none" xmlns="http://www.w3.org/2000/svg">
<mask id="path-1-inside-1_30_24" fill="white">
<path fill-rule="evenodd" clip-rule="evenodd" d="M77.8167 128.97C34.5044 128.531 0 120.641 0 110.973C0 103.192 22.3447 96.5639 53.6428 94.0429C19.8003 81.5655 -1.14713 66.6235 4.6354 57.6064C10.7571 48.0604 44.8216 48.2975 84.664 57.3288C68.8637 32.9819 65.9335 11.8829 79.1285 7.0825C92.2 2.32705 116.987 15.0611 139.134 36.6691C150.381 14.0692 166.907 -0.949231 180.646 0.821358C194.943 2.66392 201.829 22.122 198.699 47.3117C231.917 28.93 264.686 20.3677 275.625 28.0308C286.347 35.5412 272.578 56.1693 244.419 76.861C281.275 74.5202 309.717 78.7038 312.737 88.0075C315.792 97.4179 291.906 109.193 256.209 117.179C286.502 126.045 305.601 137.317 302.161 145.856C297.571 157.248 254.572 159.512 205.684 151.036C216.2 176.151 214.856 196.886 200.995 200.465C184.263 204.786 155.627 182.47 137.034 150.622C136.433 149.593 135.85 148.566 135.285 147.543C116.679 172.387 92.9847 188.328 78.6041 184.459C63.7286 180.456 63.8551 156.61 77.8167 128.97Z"/>
</mask>
<path d="M77.8167 128.97L80.4945 130.323L82.6684 126.019L77.8472 125.971L77.8167 128.97ZM53.6428 94.0429L53.8836 97.0333L54.6806 91.2282L53.6428 94.0429ZM4.6354 57.6064L7.16074 59.2259V59.2259L4.6354 57.6064ZM84.664 57.3288L84.0008 60.2546L91.1978 61.886L87.1805 55.6957L84.664 57.3288ZM79.1285 7.0825L80.1542 9.90173L79.1285 7.0825ZM139.134 36.6691L137.039 38.8163L139.985 41.6913L141.82 38.0057L139.134 36.6691ZM180.646 0.821358L180.262 3.79675V3.79675L180.646 0.821358ZM198.699 47.3117L195.721 46.9418L194.995 52.7899L200.151 49.9367L198.699 47.3117ZM275.625 28.0308L273.904 30.4879L275.625 28.0308ZM244.419 76.861L242.643 74.4435L234.395 80.5037L244.609 79.855L244.419 76.861ZM312.737 88.0075L309.884 88.9338V88.9338L312.737 88.0075ZM256.209 117.179L255.554 114.252L255.367 120.058L256.209 117.179ZM302.161 145.856L304.943 146.977L302.161 145.856ZM205.684 151.036L206.197 148.08L200.802 147.145L202.917 152.195L205.684 151.036ZM200.995 200.465L200.245 197.56L200.995 200.465ZM137.034 150.622L134.443 152.135V152.135L137.034 150.622ZM135.285 147.543L137.911 146.093L135.666 142.029L132.883 145.745L135.285 147.543ZM78.6041 184.459L79.3837 181.562L78.6041 184.459ZM77.8472 125.971C56.3359 125.752 37.1092 123.683 23.34 120.509C16.4312 118.917 11.061 117.083 7.49033 115.161C5.70286 114.198 4.50992 113.289 3.79673 112.497C3.09946 111.722 3 111.226 3 110.973H-3C-3 113.137 -2.0212 115.002 -0.662322 116.512C0.680632 118.003 2.52173 119.3 4.6458 120.444C8.8982 122.733 14.8612 124.712 21.9925 126.356C36.3036 129.654 55.9852 131.749 77.7863 131.97L77.8472 125.971ZM3 110.973C3 110.564 3.32053 109.475 5.66597 107.881C7.89707 106.366 11.3482 104.835 15.973 103.401C25.1812 100.546 38.3519 98.2843 53.8836 97.0333L53.4019 91.0526C37.6356 92.3225 23.9849 94.6354 14.1962 97.6702C9.32257 99.1812 5.23141 100.924 2.29481 102.918C-0.527441 104.835 -3 107.492 -3 110.973H3ZM54.6806 91.2282C37.8871 85.0366 24.481 78.2972 16.0556 72.1091C11.8153 68.9948 9.05935 66.1801 7.68203 63.8315C6.35623 61.5707 6.52656 60.2148 7.16074 59.2259L2.11006 55.987C-0.147025 59.5066 0.473284 63.3998 2.50636 66.8667C4.48792 70.2457 7.99979 73.637 12.5039 76.945C21.5671 83.6015 35.5559 90.5719 52.605 96.8577L54.6806 91.2282ZM7.16074 59.2259C8.05161 57.8367 10.3668 56.3058 14.853 55.1748C19.1996 54.079 25.0059 53.5036 32.0055 53.5011C45.9819 53.4962 64.2277 55.7725 84.0008 60.2546L85.3272 54.403C65.2579 49.8538 46.5503 47.496 32.0034 47.5011C24.7414 47.5037 18.3936 48.0945 13.3863 49.3568C8.5186 50.584 4.28006 52.6031 2.11006 55.987L7.16074 59.2259ZM87.1805 55.6957C79.4089 43.7202 74.9849 32.8046 74.0021 24.5222C73.5118 20.3905 73.9027 17.1265 74.9511 14.7425C75.9595 12.4492 77.6342 10.8185 80.1542 9.90173L78.1029 4.26327C74.0253 5.74671 71.1181 8.55348 69.4587 12.3272C67.8391 16.0102 67.4759 20.4427 68.0439 25.2292C69.1776 34.7832 74.1188 46.5904 82.1475 58.962L87.1805 55.6957ZM80.1542 9.90173C85.4604 7.9713 93.9339 9.45583 104.388 14.6737C114.651 19.7958 126.136 28.1785 137.039 38.8163L141.229 34.5218C129.985 23.5517 118.003 14.7633 107.068 9.30527C96.3241 3.94302 85.8681 1.43825 78.1029 4.26327L80.1542 9.90173ZM141.82 38.0057C147.314 26.9653 154.039 17.9043 160.933 11.8624C167.892 5.76354 174.621 3.06966 180.262 3.79675L181.029 -2.15403C172.932 -3.19754 164.529 0.7325 156.978 7.35015C149.362 14.0248 142.201 23.773 136.448 35.3325L141.82 38.0057ZM180.262 3.79675C185.923 4.52627 190.515 8.73855 193.401 16.3725C196.293 24.0194 197.248 34.6557 195.721 46.9418L201.676 47.6817C203.279 34.7781 202.356 23.0904 199.014 14.2502C195.666 5.39703 189.666 -1.041 181.029 -2.15403L180.262 3.79675ZM200.151 49.9367C216.59 40.8402 232.846 34.2157 246.255 30.8122C252.964 29.1092 258.866 28.2371 263.669 28.2256C268.545 28.2139 271.909 29.0905 273.904 30.4879L277.346 25.5737C273.872 23.1395 269.038 22.2127 263.655 22.2256C258.199 22.2387 251.781 23.2193 244.779 24.9966C230.764 28.554 214.026 35.4015 197.246 44.6868L200.151 49.9367ZM273.904 30.4879C275.636 31.7013 276.399 33.3401 276.239 35.7177C276.065 38.3011 274.77 41.7243 272.084 45.8724C266.741 54.1235 256.581 64.2011 242.643 74.4435L246.195 79.2785C260.416 68.8293 271.219 58.247 277.12 49.1335C280.056 44.5993 281.953 40.164 282.225 36.1207C282.511 31.8716 280.975 28.1155 277.346 25.5737L273.904 30.4879ZM244.609 79.855C262.907 78.6929 278.994 79.1606 290.797 81.0306C296.713 81.9679 301.409 83.2358 304.732 84.7436C308.176 86.3066 309.529 87.8419 309.884 88.9338L315.591 87.0813C314.435 83.5213 311.101 81.0448 307.211 79.2798C303.2 77.4597 297.915 76.0836 291.736 75.1046C279.349 73.142 262.788 72.6884 244.229 73.8671L244.609 79.855ZM309.884 88.9338C310.161 89.7863 310.049 91.1784 308.014 93.3722C305.995 95.5483 302.539 97.9612 297.644 100.454C287.904 105.413 273.278 110.286 255.554 114.252L256.864 120.107C274.838 116.086 290.003 111.078 300.367 105.801C305.523 103.175 309.697 100.381 312.413 97.4528C315.113 94.5426 316.841 90.9339 315.591 87.0813L309.884 88.9338ZM255.367 120.058C270.395 124.457 282.457 129.401 290.265 134.196C294.191 136.608 296.833 138.856 298.284 140.808C299.704 142.72 299.707 143.918 299.378 144.734L304.943 146.977C306.334 143.524 305.24 140.111 303.1 137.23C300.99 134.391 297.61 131.666 293.405 129.084C284.95 123.892 272.316 118.767 257.052 114.3L255.367 120.058ZM299.378 144.734C299.104 145.413 298.442 146.269 297.043 147.197C295.65 148.122 293.693 149.007 291.139 149.797C286.029 151.377 278.969 152.442 270.374 152.901C253.216 153.817 230.476 152.29 206.197 148.08L205.172 153.992C229.78 158.258 252.983 159.838 270.694 158.892C279.533 158.421 287.139 157.314 292.911 155.529C295.797 154.637 298.334 153.543 300.362 152.196C302.384 150.854 304.069 149.146 304.943 146.977L299.378 144.734ZM202.917 152.195C208.07 164.502 210.19 175.457 209.492 183.569C208.798 191.647 205.464 196.212 200.245 197.56L201.745 203.37C210.387 201.138 214.656 193.546 215.47 184.083C216.281 174.655 213.814 162.685 208.451 149.877L202.917 152.195ZM200.245 197.56C196.859 198.434 192.59 198.022 187.603 196.167C182.639 194.32 177.176 191.12 171.556 186.74C160.317 177.983 148.752 164.745 139.625 149.11L134.443 152.135C143.908 168.348 155.958 182.192 167.868 191.473C173.823 196.113 179.819 199.673 185.511 201.79C191.18 203.899 196.765 204.656 201.745 203.37L200.245 197.56ZM139.625 149.11C139.036 148.101 138.464 147.095 137.911 146.093L132.659 148.993C133.235 150.038 133.83 151.085 134.443 152.135L139.625 149.11ZM132.883 145.745C123.745 157.947 113.413 167.882 103.712 174.262C93.8485 180.748 85.2838 183.149 79.3837 181.562L77.8246 187.356C86.3051 189.638 96.7778 186.003 107.008 179.275C117.4 172.441 128.219 161.983 137.686 149.341L132.883 145.745ZM79.3837 181.562C73.8429 180.071 70.4739 174.861 70.3964 165.553C70.3192 156.283 73.6382 143.896 80.4945 130.323L75.139 127.618C68.0336 141.684 64.3086 155.04 64.3966 165.603C64.4843 176.129 68.4899 184.844 77.8246 187.356L79.3837 181.562Z" fill="#FFE875" mask="url(#path-1-inside-1_30_24)"/>
<path fill-rule="evenodd" clip-rule="evenodd" d="M33.5366 108.735C33.5366 116.268 60.4206 122.416 94.1672 122.758C83.2891 144.293 83.1905 162.872 94.7807 165.991C105.985 169.006 124.447 156.586 138.943 137.229C139.384 138.026 139.838 138.826 140.306 139.628C154.793 164.442 177.105 181.829 190.142 178.463C200.941 175.674 201.988 159.519 193.795 139.95C231.885 146.554 265.388 144.791 268.964 135.914C271.644 129.261 256.763 120.478 233.161 113.571C260.975 107.348 279.585 98.1738 277.205 90.8418C274.852 83.5928 252.692 80.3331 223.975 82.157C245.915 66.0351 256.642 49.9628 248.289 44.1111C239.766 38.1404 214.234 44.8116 188.352 59.1337C190.791 39.5072 185.426 24.3466 174.286 22.911C163.582 21.5314 150.705 33.2329 141.942 50.8416C124.687 34.0058 105.374 24.0841 95.1893 27.7893C84.9084 31.5295 87.1914 47.9687 99.5022 66.9385C68.4591 59.9018 41.918 59.7171 37.1482 67.1548C32.6428 74.1805 48.9639 85.8225 75.3322 95.5443C50.9464 97.5084 33.5366 102.673 33.5366 108.735ZM103.816 107.212C104.028 106.947 104.16 106.62 104.213 106.231V106.045C104.125 105.391 104.01 104.746 103.869 104.11C103.745 103.455 103.595 102.819 103.418 102.2C103.736 102.129 104.001 101.997 104.213 101.802C104.443 101.608 104.602 101.378 104.691 101.113C104.797 100.848 104.823 100.574 104.77 100.291C104.735 100.008 104.593 99.7427 104.346 99.4951C104.063 99.1946 103.745 99.0355 103.391 99.0178C103.038 99.0001 102.675 99.0001 102.304 99.0178C101.685 97.4443 100.987 95.9062 100.209 94.4034C99.4311 92.883 98.441 91.5217 97.2388 90.3195C96.9382 90.0366 96.567 89.8951 96.125 89.8951C95.7891 89.8951 95.5062 89.9836 95.2764 90.1603C95.0465 90.3195 94.8432 90.5228 94.6664 90.7703C94.5073 91.0001 94.3659 91.2565 94.2421 91.5394C94.1184 91.8222 93.9946 92.0874 93.8708 92.3349C93.7648 92.5648 93.6498 92.7946 93.5261 93.0244C93.42 93.2543 93.3139 93.4929 93.2079 93.7405C91.9526 96.5869 90.9272 99.5305 90.1316 102.571C89.9902 103.102 89.8399 103.632 89.6808 104.163C89.5217 104.693 89.4156 105.232 89.3625 105.78C89.3095 106.205 89.3625 106.585 89.5217 106.921C89.6985 107.239 89.9195 107.477 90.1846 107.637C90.4675 107.796 90.7769 107.849 91.1128 107.796C91.4664 107.76 91.7935 107.566 92.094 107.212C92.3416 106.929 92.5007 106.602 92.5714 106.231C92.6421 105.842 92.7217 105.471 92.8101 105.117C92.9161 104.658 93.0222 104.189 93.1283 103.712C93.2521 103.234 93.3935 102.766 93.5526 102.306C94.6311 102.289 95.7095 102.28 96.788 102.28C97.8664 102.28 98.9537 102.271 100.05 102.253C100.386 103.279 100.642 104.277 100.819 105.25C100.89 105.586 100.934 105.931 100.951 106.284C100.987 106.62 101.119 106.929 101.349 107.212C101.614 107.548 101.897 107.752 102.198 107.822C102.516 107.911 102.808 107.902 103.073 107.796C103.356 107.69 103.603 107.495 103.816 107.212ZM97.7161 96.6576C98.1051 97.4355 98.4675 98.2222 98.8034 99.0178C98.0786 99.0355 97.3979 99.0443 96.7614 99.0443C96.1427 99.0443 95.4178 99.0532 94.5869 99.0708C94.8521 98.2753 95.1349 97.4974 95.4355 96.7371C95.7537 95.9592 96.0896 95.1813 96.4432 94.4034C96.9206 95.1106 97.3449 95.862 97.7161 96.6576ZM125.997 90.399C125.767 90.6289 125.599 90.9206 125.493 91.2742L125.467 91.4333C125.467 93.0421 125.458 94.6421 125.44 96.2333C125.423 97.8244 125.387 99.4244 125.334 101.033C124.874 100.361 124.397 99.6896 123.902 99.0178C123.425 98.346 122.93 97.6742 122.417 97.0023C121.904 96.3482 121.347 95.6587 120.746 94.9338C120.145 94.1913 119.615 93.5371 119.155 92.9714C119.031 92.8123 118.872 92.609 118.678 92.3615C118.501 92.0963 118.306 91.8399 118.094 91.5924C117.882 91.3272 117.661 91.0885 117.431 90.8764C117.219 90.6465 117.007 90.4963 116.795 90.4255C116.547 90.3371 116.291 90.3018 116.026 90.3195C115.761 90.3371 115.513 90.4079 115.283 90.5316C115.053 90.6377 114.859 90.7968 114.7 91.009C114.558 91.2211 114.488 91.4775 114.488 91.778C114.47 92.3791 114.47 92.9802 114.488 93.5813C114.505 94.1648 114.514 94.757 114.514 95.3581V97.0023C114.532 97.6388 114.541 98.3283 114.541 99.0708V101.352V103.5V105.303V106.47C114.541 106.894 114.665 107.248 114.912 107.531C115.16 107.813 115.451 107.99 115.787 108.061C116.123 108.132 116.45 108.096 116.768 107.955C117.104 107.813 117.352 107.531 117.511 107.106C117.564 106.965 117.599 106.797 117.617 106.602C117.652 106.408 117.679 106.143 117.697 105.807C117.714 105.453 117.723 105.002 117.723 104.454V102.412V96.4189C119.102 98.1338 120.428 99.8664 121.701 101.617C122.974 103.349 124.185 105.161 125.334 107.053V107C125.334 107.018 125.343 107.035 125.361 107.053C125.52 107.371 125.767 107.592 126.103 107.716C126.439 107.858 126.766 107.893 127.084 107.822C127.42 107.769 127.712 107.628 127.96 107.398C128.225 107.168 128.357 106.85 128.357 106.443C128.499 103.915 128.596 101.396 128.649 98.8852C128.72 96.357 128.737 93.8288 128.702 91.3007C128.702 91.1946 128.667 91.0797 128.596 90.9559C128.543 90.8322 128.481 90.7261 128.41 90.6377C128.198 90.3195 127.942 90.1073 127.641 90.0012C127.358 89.8951 127.076 89.8775 126.793 89.9482C126.51 90.0189 126.245 90.1692 125.997 90.399ZM147.823 104.64C147.523 104.375 147.143 104.233 146.683 104.216H146.497C146.356 104.233 146.223 104.251 146.1 104.269H145.728V93.7139H146.391C146.621 93.7139 146.842 93.6963 147.054 93.6609C147.284 93.6079 147.487 93.5283 147.664 93.4222C147.859 93.2985 148.018 93.1305 148.142 92.9184C148.389 92.5117 148.442 92.0963 148.301 91.6719C148.159 91.2476 147.885 90.9206 147.479 90.6907C147.39 90.6554 147.302 90.6112 147.213 90.5581C147.143 90.5051 147.063 90.4786 146.975 90.4786C146.055 90.4609 145.136 90.4609 144.217 90.4786H141.512C141.247 90.4786 140.99 90.5316 140.743 90.6377C140.478 90.7438 140.257 90.9117 140.08 91.1416C139.903 91.3714 139.779 91.6189 139.708 91.8841C139.655 92.1316 139.673 92.388 139.762 92.6532C139.85 92.9007 140.027 93.1217 140.292 93.3161C140.646 93.5637 140.999 93.6963 141.353 93.7139H142.493V104.216C142.086 104.18 141.68 104.18 141.273 104.216C140.866 104.251 140.539 104.392 140.292 104.64C140.027 104.905 139.859 105.197 139.788 105.515C139.735 105.833 139.762 106.134 139.868 106.417C139.991 106.7 140.186 106.938 140.451 107.133C140.716 107.345 141.034 107.451 141.406 107.451H142.97C143.165 107.451 143.448 107.46 143.819 107.477C144.19 107.513 144.588 107.531 145.012 107.531C145.454 107.548 145.887 107.539 146.312 107.504C146.754 107.469 147.134 107.389 147.452 107.265C147.894 107.089 148.186 106.841 148.327 106.523C148.469 106.187 148.495 105.851 148.407 105.515C148.318 105.179 148.124 104.887 147.823 104.64ZM170.484 105.17C170.272 104.87 169.962 104.622 169.556 104.428L169.396 104.375C168.265 104.41 167.142 104.445 166.028 104.481C164.932 104.498 163.827 104.507 162.714 104.507C162.714 102.421 162.731 100.335 162.767 98.2487C162.802 96.1626 162.802 94.0587 162.767 91.9371C162.767 91.6896 162.687 91.4686 162.528 91.2742C162.387 91.062 162.201 90.9029 161.971 90.7968C161.759 90.673 161.52 90.6023 161.255 90.5847C161.007 90.5493 160.778 90.5758 160.566 90.6642C160.318 90.7703 160.124 90.9029 159.982 91.062C159.841 91.2034 159.735 91.4421 159.664 91.778C159.611 92.0963 159.575 92.5471 159.558 93.1305C159.54 93.6963 159.531 94.4476 159.531 95.3847V97.2145C159.531 97.904 159.522 98.6112 159.505 99.336C159.505 100.043 159.496 100.742 159.478 101.431V103.261C159.478 103.526 159.469 103.862 159.452 104.269C159.452 104.658 159.461 105.055 159.478 105.462C159.514 105.851 159.575 106.231 159.664 106.602C159.77 106.956 159.929 107.221 160.141 107.398C160.389 107.628 160.68 107.743 161.016 107.743C161.352 107.743 161.679 107.734 161.998 107.716C163.27 107.698 164.34 107.69 165.206 107.69H167.354C167.92 107.69 168.362 107.681 168.68 107.663C168.999 107.663 169.246 107.637 169.423 107.584C169.883 107.442 170.219 107.239 170.431 106.974C170.661 106.691 170.775 106.399 170.775 106.098C170.793 105.78 170.696 105.471 170.484 105.17ZM194.453 103.155C194.93 102.2 195.319 101.228 195.62 100.238C195.743 99.4244 195.814 98.6112 195.832 97.7979C195.85 96.9846 195.761 96.1626 195.567 95.3316C195.408 94.6775 195.151 94.0499 194.798 93.4487C194.444 92.8476 194.011 92.3173 193.498 91.8576C193.109 91.504 192.703 91.2123 192.278 90.9824C191.854 90.7526 191.394 90.5493 190.899 90.3725C190.298 90.1603 189.679 90.0366 189.043 90.0012C188.406 89.9659 187.779 90.0012 187.16 90.1073C185.958 90.3371 184.888 90.8145 183.951 91.5394C183.014 92.2465 182.236 93.104 181.617 94.1117C180.999 95.1018 180.548 96.1891 180.265 97.3736C179.982 98.5581 179.885 99.725 179.973 100.874C180.026 101.528 180.141 102.209 180.318 102.916C180.513 103.606 180.787 104.26 181.14 104.879C181.494 105.497 181.927 106.045 182.44 106.523C182.97 106.982 183.598 107.318 184.322 107.531C184.729 107.725 185.145 107.866 185.569 107.955C186.011 108.061 186.603 108.132 187.346 108.167C188.495 108.167 189.511 107.937 190.395 107.477C191.297 107.018 192.084 106.417 192.756 105.674C193.427 104.932 193.993 104.092 194.453 103.155ZM190.13 103.818C189.741 104.189 189.282 104.49 188.751 104.719C188.221 104.949 187.682 105.055 187.133 105.038C186.603 105.002 186.099 104.87 185.622 104.64C185.145 104.41 184.711 104.092 184.322 103.685C183.951 103.279 183.668 102.828 183.474 102.333C183.226 101.661 183.111 100.954 183.129 100.211C183.147 99.4686 183.244 98.7615 183.421 98.0896C183.633 97.241 183.942 96.4719 184.349 95.7824C184.773 95.0753 185.321 94.4388 185.993 93.873C186.471 93.4841 187.01 93.2454 187.611 93.157C188.23 93.0686 188.84 93.104 189.441 93.2631C190.042 93.4045 190.59 93.6697 191.085 94.0587C191.598 94.43 191.978 94.8808 192.225 95.4112C192.526 96.0476 192.667 96.7195 192.65 97.4266C192.65 98.1338 192.596 98.8233 192.49 99.4951C192.331 100.026 192.146 100.556 191.934 101.086C191.739 101.599 191.492 102.085 191.191 102.545C190.89 103.005 190.537 103.429 190.13 103.818ZM220.887 98.0896C220.639 97.8421 220.339 97.6653 219.985 97.5592C219.278 97.5592 218.58 97.5681 217.89 97.5858C217.218 97.6034 216.538 97.6123 215.848 97.6123H215.397C215.203 97.5946 214.982 97.5858 214.734 97.5858C214.505 97.5858 214.266 97.5946 214.018 97.6123C213.789 97.6123 213.594 97.63 213.435 97.6653C213.099 97.7537 212.834 97.9217 212.639 98.1692C212.445 98.4167 212.321 98.6907 212.268 98.9913C212.215 99.2742 212.242 99.5659 212.348 99.8664C212.471 100.149 212.684 100.379 212.984 100.556C213.302 100.733 213.638 100.856 213.992 100.927C214.363 100.98 214.734 101.007 215.106 101.007C215.495 100.989 215.875 100.963 216.246 100.927C216.635 100.874 217.006 100.839 217.36 100.821V103.685C216.918 104.127 216.414 104.437 215.848 104.613C215.282 104.79 214.708 104.852 214.124 104.799C213.541 104.746 212.975 104.587 212.427 104.322C211.897 104.039 211.428 103.676 211.022 103.234C210.403 102.563 209.979 101.785 209.749 100.901C209.519 99.999 209.475 99.0974 209.616 98.1957C209.722 97.4708 209.961 96.8521 210.332 96.3393C210.721 95.8266 211.181 95.3847 211.711 95.0134C212.242 94.6421 212.816 94.3327 213.435 94.0852C214.071 93.82 214.699 93.599 215.318 93.4222C215.53 93.3869 215.742 93.3692 215.954 93.3692C216.184 93.3515 216.396 93.378 216.591 93.4487C216.821 93.5195 217.068 93.6079 217.333 93.7139C217.598 93.82 217.864 93.9084 218.129 93.9791C218.394 94.0322 218.65 94.0499 218.898 94.0322C219.163 93.9968 219.411 93.8907 219.64 93.7139C219.87 93.5371 220.029 93.3427 220.118 93.1305C220.206 92.9007 220.233 92.6708 220.197 92.441C220.18 92.1935 220.1 91.9548 219.959 91.725C219.835 91.4951 219.676 91.3007 219.481 91.1416C219.075 90.8056 218.58 90.5758 217.996 90.4521C217.431 90.3106 216.9 90.2222 216.405 90.1869C215.751 90.1515 215.106 90.1957 214.469 90.3195C213.833 90.4432 213.214 90.6289 212.613 90.8764C211.835 91.1769 211.075 91.5305 210.332 91.9371C209.607 92.3438 208.962 92.8565 208.396 93.4753C207.919 94.0056 207.521 94.5979 207.203 95.2521C206.885 95.9062 206.655 96.5957 206.513 97.3206C206.372 98.0277 206.31 98.7526 206.328 99.4951C206.363 100.22 206.469 100.918 206.646 101.59C206.929 102.651 207.38 103.641 207.998 104.56C208.635 105.48 209.413 106.231 210.332 106.814C211.057 107.274 211.808 107.61 212.586 107.822C213.382 108.034 214.169 108.114 214.947 108.061C215.724 108.008 216.485 107.831 217.227 107.531C217.97 107.248 218.668 106.832 219.322 106.284C219.517 106.125 219.702 105.957 219.879 105.78C220.056 105.603 220.206 105.4 220.33 105.17C220.454 104.887 220.533 104.498 220.569 104.003C220.604 103.491 220.613 102.987 220.595 102.492C220.595 101.997 220.586 101.564 220.569 101.192C220.551 100.803 220.56 100.582 220.595 100.529C220.966 100.3 221.205 100.043 221.311 99.7603C221.435 99.4598 221.453 99.1681 221.364 98.8852C221.293 98.5847 221.134 98.3195 220.887 98.0896Z" fill="#E1FF6B"/>
</svg>
