<svg width="122" height="50" viewBox="0 0 122 50" fill="none" xmlns="http://www.w3.org/2000/svg">
<path d="M75.9684 6.19289C66.0902 4.36015 50.1341 2.35541 38.8905 3.19827C31.2212 3.77319 23.9338 5.79538 17.4565 7.5122C11.4571 9.10234 9.71377 11.2373 6.68866 13.7318C3.75868 16.1478 1 19.7117 1 22.4015C1 24.6004 1 26.7992 1 28.9981C1 32.8514 5.7069 35.3703 11.4631 38.4217C20.8391 43.3919 32.3168 46.6418 47.3219 48.0338C63.2909 49.5152 77.2382 49.2725 92.9328 47.4474C98.0286 46.8548 111.624 43.9888 111.624 41.0603C111.624 38.9941 114.955 36.6506 116.906 34.8407C118.935 32.9589 117.615 30.7904 117.11 28.8096C116.501 26.4246 113.334 23.75 111.624 21.4592C110.119 19.4426 109.093 18.0354 106.596 16.1819C104.301 14.4791 102.897 12.5626 99.5357 11.1769C95.8525 9.65838 92.2053 8.51986 87.8536 7.32372" stroke="#4274FF" stroke-width="2" stroke-linecap="round"/>
<path d="M89.5 7.5C85.5 6.5 84.416 6.18219 82.1754 5.60131C77.8493 4.47971 73.0849 4.31248 68.6658 3.78219C59.6611 2.70162 50.1935 3.29414 41.1114 3.40766C33.6311 3.50117 24.9846 7.23521 18.3724 10.6306C15.0579 12.3327 9.66748 15.2438 7.7787 18.5492C6.60416 20.6046 4.84889 21.6653 7.0564 23.8728C8.81096 25.6273 10.0618 27.6222 11.2564 29.8919C12.5736 32.3946 13.8048 34.3496 16.4463 35.6703C23.9951 39.4447 31.9256 41.693 40.2286 43.1876C51.3133 45.1828 62.1321 47.8659 73.4276 48.6449C81.7517 49.219 91.1089 49.5285 98.815 45.9965C104.174 43.5403 109.38 39.5777 113.502 35.4563C117.123 31.8356 118.185 28.5196 119.601 23.739C121.764 16.4381 116.377 11.4796 110.345 8.46375C96.385 1.4837 81.9628 1 66.5256 1" stroke="#4274FF" stroke-width="2" stroke-linecap="round"/>
</svg>
