<svg width="318" height="328" viewBox="0 0 318 328" fill="none" xmlns="http://www.w3.org/2000/svg">
<path d="M119.492 314.725C125.676 317.473 131.93 318.207 138.39 318.34C144.243 319.317 150.243 323.201 155.932 324.952C167.041 328.37 179.41 327.541 191.143 327.541C204.904 327.541 218.211 323.499 229.848 315.89C241.752 308.107 248.069 294.414 257.551 284.434C266.587 274.921 268.457 261.154 277.098 251.553C284.757 243.043 289.925 232.951 298.327 225.016C301.308 222.201 309.455 218.472 313.473 218.026C320.378 217.258 318.158 213.637 313.473 211.294C308.335 208.725 304.425 208.705 298.586 208.705L298.081 208.705C289.881 208.704 278.53 208.702 270.949 211.618C264.414 214.131 257.456 215.144 251.143 218.543C244.825 221.946 237.754 221.382 232.437 226.699C227.577 231.559 220.116 234.489 215.026 239.579C211.395 243.21 209.663 248.647 205.706 251.812C201.823 254.918 200.295 260.335 196.385 263.463C195.059 264.524 192.899 267.842 192.049 269.288C190.343 272.187 186.7 273.749 185.317 276.861C182.794 282.538 177.408 286.529 175.932 293.172C175.621 294.57 174.832 299.082 174.832 298.414V290.259C174.832 262.181 171.337 235.324 171.337 207.54C171.337 196.567 173.667 186.115 173.667 174.919C173.667 165.017 172.502 154.748 172.502 145.21C172.502 135.051 171.337 125.253 171.337 114.919C171.337 112.144 159.809 111.285 159.751 111.488C158.456 116.019 158.521 123.053 158.521 127.734C158.521 141.433 157.356 154.858 157.356 168.511C157.356 187.287 159.686 206.838 159.686 225.599V283.916V301.327C159.686 306.951 158.521 294.703 158.521 293.172C158.521 283.104 149.597 275.131 145.706 266.375C140.405 254.45 131.654 243.586 122.404 234.336C113.1 225.032 101.511 212.478 88.8768 207.799C81.0841 204.913 73.9738 199.385 65.3169 199.385H45.2521C38.7134 199.385 28.0698 200.209 22.2099 203.139C19.4513 204.518 16.9196 205.741 13.9898 207.022C10.2376 208.664 2.93164 210.676 0.0739271 213.365C-1.1194 214.489 12.49 214.387 15.2196 214.531C21.8557 214.88 28.1123 219.294 33.8605 222.168C39.111 224.793 45.7514 233.789 49.5887 238.479C55.2597 245.41 61.2369 252.108 66.4819 259.32C74.2745 270.035 82.2028 280.43 90.3008 290.841C98.2263 301.031 107.456 309.376 119.492 314.725Z" fill="#30BF7A"/>
<path d="M111.799 99.3268C127.583 112.241 144.385 116.091 164.744 116.091C176.634 116.091 193.689 101.412 195.036 89.2944C195.492 85.191 197.572 81.0855 198.466 77.0614C199.252 73.5242 198.531 69.0387 198.531 65.4108C198.531 58.2247 197.966 46.1028 194.453 39.7797C192.56 36.3728 192.514 31.3065 190.634 27.5466C188.56 23.3981 185.393 19.9761 183.126 15.8961C181.03 12.1238 178.584 8.72437 176.395 4.89282C173.951 0.615943 174.212 -1.12722 169.987 0.750413C163.145 3.79138 154.857 12.873 151.023 19.3913C146.69 26.757 143.773 32.818 143.773 41.5273C143.773 42.8002 144.255 53.0483 143.191 53.0483C142.666 53.0483 141.664 49.1605 140.861 48.5176C139.604 47.5119 138.814 46.4096 137.366 45.6049C130.439 41.7567 124.124 37.2043 116.977 33.6308C110.571 30.428 100.222 26.3816 93.0935 26.3816C87.6941 26.3816 86.6857 25.9575 86.6857 31.6243C86.6857 34.7761 89.0158 38.6817 89.0158 42.1098C89.0158 62.5901 95.4649 85.9624 111.799 99.3268Z" fill="#FFB0E7"/>
</svg>
