<svg width="221" height="324" viewBox="0 0 221 324" fill="none" xmlns="http://www.w3.org/2000/svg">
<path d="M64.2122 168.774C73.1166 170.752 79.5066 182.801 88.3861 182.801C91.4105 191.874 87.3118 201.722 87.3118 211.272C87.3118 219.782 66.9431 213.125 62.6006 212.884C57.5833 212.605 52.9664 208.081 47.559 207.512C42.6545 206.995 35.1498 200.09 32.5771 196.231C28.9555 190.798 23.3595 188.002 20.2215 181.726C17.4852 176.253 14.0451 171.164 11.2682 165.61C9.03201 161.138 3.78765 155.59 3.50866 150.569C3.17099 144.491 2.48435 140.74 8.40314 144.122C12.336 146.37 15.6491 150.58 20.1618 151.583C24.2568 152.493 31.5154 154.214 34.6662 157.015C38.6269 160.536 44.4947 162.913 49.7078 163.461C55.06 164.025 59.1115 167.64 64.2122 168.774Z" fill="#30BF7A"/>
<path d="M152.85 142.809C141.07 148.045 128.139 157.092 128.139 172.057C128.139 184.84 130.288 188.501 130.288 201.603C130.288 214.525 131.156 225.912 144.255 232.462C150.895 235.782 152.447 237.73 158.759 232.82C163.844 228.865 171.147 226.24 177.024 223.628C185.194 219.997 189.128 209.294 194.274 202.677C198.85 196.794 206.225 188.727 207.585 181.249C209.043 173.229 212.702 164.346 213.016 156.179C213.306 148.649 220.248 142.493 220.537 134.691C220.613 132.643 221.601 126.932 218.926 126.932C216.476 126.932 214.234 129.081 211.405 129.081C205.664 129.081 199.292 130.155 193.14 130.155C177.875 130.155 166.414 136.781 152.85 142.809Z" fill="#30BF7A"/>
<path d="M105.312 90.4227C107.926 93.3639 114.981 99.9569 114.981 103.315C112.03 104.791 108.26 119.326 107.401 123.192C106.056 129.243 103.737 135.417 102.029 141.397C98.3866 154.145 74.3882 149.982 65.559 146.829C56.9757 143.763 47.4929 138.898 39.7734 133.936C32.0458 128.968 27.3133 123.087 20.9715 116.745C17.1662 112.94 12.9135 102.763 12.9135 97.4063C12.9135 90.4706 6.92752 83.6309 5.45237 76.9927C4.11041 70.9539 -0.339681 65.7517 0.0206835 59.2651C0.0842336 58.1212 12.7349 61.01 14.8235 61.6527C18.2183 62.6972 22.4702 63.4303 26.045 63.5627C29.696 63.6979 33.1342 66.5048 36.789 66.7859C42.9382 67.2589 49.7823 68.9347 55.8894 68.9347C68.6932 68.9347 80.9834 73.2831 92.419 78.3655C95.3235 79.6564 97.1378 81.1798 99.9398 82.6631C102.744 84.1477 103.308 88.168 105.312 90.4227Z" fill="#30BF7A"/>
<path d="M95.6682 97.923C97.7831 102.153 103.17 108.667 107.725 108.667C113.249 108.667 119.448 107.593 124.378 107.593C130.425 107.593 135.711 110.256 141.867 106.518C149.437 101.923 160.685 98.6163 165.803 90.9394C171.074 83.0322 181.132 76.9185 185.022 67.8399C186.631 64.0862 189.547 61.0173 191.29 57.0959C192.757 53.7939 192.603 49.9027 192.603 46.3519V23.1926C192.603 18.8254 192.447 14.4249 192.603 10.0611C192.625 9.43978 195.087 -2.26444 191.767 0.391518C188.051 3.36432 180.276 0.77468 176.726 3.61471C172.499 6.99627 165.115 9.66334 159.834 10.8371C154.136 12.1032 147.473 9.41069 141.867 11.1355C133.006 13.8622 127.005 21.5486 119.066 25.8786C116.316 27.3788 112.401 29.3661 110.471 31.8475C109.165 33.5268 107.705 36.4834 106.114 37.7567C101.805 41.2041 99.1056 48.6692 96.7426 53.3952C95.342 56.1963 95.9069 59.7949 95.9069 63.0051C95.9069 67.543 94.8325 72.2648 94.8325 76.9723C94.8325 82.7903 93.0147 92.6161 95.6682 97.923Z" fill="#30BF7A"/>
<path d="M89.4605 269.827C89.4605 284.737 87.3117 298.973 87.3117 313.877C88.7121 315.978 90.3688 316.995 91.3706 319.249C92.4498 321.678 92.3283 321.222 93.7581 323.01C95.1119 324.702 102.864 323.547 105.039 323.547C112.199 323.547 120.375 321.7 125.751 316.862C127.987 314.85 127.631 307.564 127.005 304.745C126.083 300.596 125.99 296.782 125.99 292.389V253.174V210.496C125.99 205.502 128.139 200.817 128.139 195.932V181.487C128.139 170.383 124.916 159.957 124.916 148.957C124.916 138.678 121.339 127.676 122.827 117.262C124.141 108.06 130.288 101.611 130.288 91.7155C130.288 82.5 132.525 73.5061 130.288 64.5571C129.882 62.9347 129.153 55.348 126.587 56.0813C125.088 56.5096 124.999 58.5642 124.08 59.4835C122.101 61.4627 119.705 66.0071 119.544 68.9144C119.327 72.8239 120.31 77.1289 118.708 80.7327C117.271 83.9657 119.529 89.3469 117.156 92.3124C115.266 94.6747 114.172 101.773 114.172 104.907C114.172 109.087 113.097 113.404 113.097 117.799V143.585C113.097 162.515 114.172 181.32 114.172 199.991V215.092C114.172 219.487 113.22 223.642 113.097 227.925C113.027 230.384 113.791 233.768 112.56 235.983C111.065 238.675 110.949 245.228 110.949 248.339C110.949 253.417 111.541 258.801 110.113 263.619C108.526 268.975 108.8 278.151 108.8 283.794V299.433C108.8 302.326 109.129 311.279 107.128 313.28C103.474 316.935 100.205 312.241 100.205 309.042C100.205 290.688 102.353 272.049 102.353 253.711V186.024V164.297C102.353 157.622 100.527 151.643 100.205 145.197C99.7433 135.972 98.0557 127.292 98.0557 117.859C98.0557 113.766 96.9813 110.239 96.9813 106.518C96.9813 104.267 94.8325 93.6864 94.8325 98.9975C94.8325 107.284 91.6093 114.452 91.6093 122.634C91.6093 127.31 89.2677 131.603 88.4458 136.124C87.1116 143.462 87.3117 151.107 87.3117 158.627C87.3117 175.3 88.0267 191.202 89.5202 207.631C91.4104 228.423 89.4605 249.067 89.4605 269.827Z" fill="#28AD6D"/>
</svg>
