<svg width="474" height="10" viewBox="0 0 474 10" fill="none" xmlns="http://www.w3.org/2000/svg">
<path d="M283.047 9.59863C279.447 9.5993 276.453 7.71412 273.81 6.04978L272.753 5.38441C270.292 3.8317 267.747 2.22618 264.886 2.20457C262.02 2.20813 259.412 3.80519 256.921 5.37282L255.857 6.04244C253.234 7.69675 250.261 9.57209 246.686 9.59839C243.011 9.58769 240.037 7.72681 237.376 6.05155L236.315 5.38416C233.854 3.83146 231.309 2.22597 228.449 2.20435C225.49 2.1629 222.975 3.80427 220.484 5.37258L219.422 6.04064C216.799 7.69563 213.826 9.57165 210.249 9.59817C210.224 9.59817 210.198 9.59817 210.173 9.59817C206.573 9.59817 203.581 7.71434 200.939 6.05133L199.88 5.38463C197.419 3.83125 194.873 2.22572 192.012 2.20411C189.116 2.20767 186.539 3.80472 184.048 5.37236L182.984 6.04108C180.361 7.69606 177.388 9.57144 173.812 9.59795C170.158 9.55428 167.163 7.72571 164.503 6.05111L163.441 5.38373C160.981 3.83102 158.436 2.2255 155.576 2.20389C152.683 2.16244 150.102 3.80384 147.61 5.37214L146.546 6.04244C143.923 7.69608 140.951 9.57122 137.375 9.59774C133.709 9.58704 130.726 7.72616 128.065 6.0509L127.006 5.38416C124.545 3.83079 122 2.22529 119.138 2.20367C116.228 2.22239 113.663 3.80496 111.171 5.37415L110.111 6.04086C107.487 7.69584 104.514 9.57122 100.938 9.59774C100.913 9.59774 100.887 9.59774 100.862 9.59774C97.263 9.59774 94.2707 7.7139 91.6287 6.0509L90.5671 5.38351C88.1067 3.83081 85.5617 2.22529 82.7017 2.20367C79.7593 2.16222 77.2274 3.80362 74.7364 5.37192L73.6725 6.04154C71.0496 7.69586 68.0764 9.57122 64.5016 9.59752C60.878 9.58682 57.8519 7.72594 55.1912 6.05068L54.1318 5.38395C51.6707 3.83057 49.1257 2.22507 46.2642 2.20345C43.298 2.16201 40.79 3.8034 38.2988 5.3717L37.2372 6.03974C34.6136 7.69473 31.6407 9.57078 28.0639 9.5973C24.4166 9.55362 21.4149 7.72503 18.7545 6.05043L17.6939 5.38305C15.2328 3.83034 12.6878 2.22485 9.82729 2.20324C9.8079 2.20324 9.78876 2.20324 9.77033 2.20324C6.89358 2.20324 4.33224 3.81609 1.85585 5.3757L0 6.5V3.8854L0.530313 3.55226C3.19312 1.87566 6.16991 -0.0491783 9.84595 0.000959205C13.4225 0.0274764 16.3964 1.90419 19.0206 3.56007L20.0801 4.22587C22.572 5.79507 25.2188 7.42511 28.0462 7.39502C30.907 7.37363 33.4511 5.76855 35.9117 4.21673L36.9756 3.54715C39.6169 1.88414 42.6083 0.000959205 46.2075 0.000959205C46.2329 0.000959205 46.2582 0.000959205 46.2836 0.000959205C49.8608 0.0274764 52.8357 1.90484 55.459 3.56072L56.5161 4.22587C59.0087 5.7944 61.5593 7.38143 64.4837 7.39502C67.3427 7.37363 69.887 5.76923 72.3474 4.21742L73.4121 3.54715C76.0735 1.87188 79.0811 0.0190087 82.7208 0.000959205C86.2966 0.0274764 89.2705 1.90418 91.8948 3.55917L92.954 4.22587C95.4459 5.79507 98.0264 7.42511 100.92 7.39502C103.78 7.37363 106.324 5.76923 108.785 4.21742L109.846 3.54935C112.508 1.87342 115.544 0.0190035 119.157 0.00117682C122.734 0.027694 125.708 1.90506 128.333 3.56094L129.39 4.22612C131.882 5.79464 134.5 7.38165 137.357 7.39524C140.217 7.37385 142.76 5.76946 145.22 4.21831L146.287 3.54736C148.946 1.8721 152.007 0.0192263 155.595 0.00117682C159.17 0.027694 162.144 1.9044 164.769 3.55939L165.828 4.22612C168.32 5.79531 170.949 7.42532 173.794 7.39524C176.654 7.37385 179.198 5.76945 181.659 4.21763L182.724 3.54736C185.385 1.87299 188.41 0.0457435 192.031 0.00117682C195.609 0.027694 198.582 1.90506 201.207 3.56094L202.264 4.22612C204.756 5.79464 207.328 7.38165 210.231 7.39524C213.092 7.37385 215.636 5.76879 218.097 4.21698L219.16 3.54736C221.802 1.88436 224.793 0.00117682 228.392 0.00117682C228.418 0.00117682 228.443 0.00117682 228.469 0.00117682C232.044 0.027694 235.018 1.9044 237.643 3.55939L238.701 4.22612C241.194 5.79464 243.799 7.38165 246.669 7.39524C249.528 7.37385 252.072 5.76945 254.532 4.21763L255.598 3.54736C258.239 1.88436 261.23 0.00117682 264.829 0.00117682C264.854 0.00117682 264.879 0.00117682 264.905 0.00117682C268.482 0.027694 271.455 1.90441 274.079 3.56028L275.136 4.22411C277.627 5.79397 280.27 7.38165 283.105 7.39524C285.966 7.37385 288.51 5.76879 290.97 4.21698L292.033 3.54736C294.695 1.8721 297.748 0.0192263 301.342 0.00117682C304.918 0.027694 307.891 1.90374 310.514 3.55895L311.575 4.22612C314.067 5.79464 316.625 7.38165 319.542 7.39524C322.401 7.37385 324.946 5.76945 327.406 4.21763L328.471 3.54736C331.113 1.88436 334.104 0.00117682 337.702 0.00117682C337.728 0.00117682 337.753 0.00117682 337.779 0.00117682C341.355 0.027694 344.329 1.90441 346.953 3.56028L348.013 4.22612C350.504 5.79531 353.14 7.42532 355.979 7.39524C358.84 7.37385 361.384 5.76879 363.844 4.21698L364.908 3.54736C367.55 1.88436 370.541 0.00117682 374.14 0.00117682C374.166 0.00117682 374.191 0.00117682 374.216 0.00117682C377.794 0.027694 380.768 1.90506 383.392 3.56094L384.449 4.22612C386.941 5.79464 389.567 7.38165 392.416 7.39524C395.276 7.37385 397.82 5.76945 400.28 4.21763L401.345 3.54736C404.006 1.8721 407.028 0.0192263 410.654 0.00117682C414.23 0.027694 417.203 1.9044 419.827 3.55939L420.887 4.22612C423.379 5.79531 425.948 7.42532 428.853 7.39524C431.713 7.37385 434.257 5.76945 436.717 4.21763L437.779 3.54959C440.441 1.87366 443.49 0.0192211 447.09 0.00139443C450.667 0.0279116 453.641 1.90531 456.265 3.56118L457.322 4.22634C459.815 5.79486 462.393 7.38187 465.29 7.39546C468.14 7.37474 470.674 5.77836 473.125 4.23501L473.68 3.88583V6.54158C471.066 8.1881 468.873 9.57189 465.309 9.59752C461.617 9.58682 458.659 7.72594 455.999 6.05068L454.939 5.38395C452.478 3.83057 449.933 2.22507 447.072 2.20345C444.237 2.22217 441.597 3.80474 439.104 5.37394L438.044 6.04064C435.421 7.69563 432.448 9.571 428.871 9.59752C428.846 9.59752 428.821 9.59752 428.795 9.59752C425.196 9.59752 422.204 7.71369 419.562 6.05068L418.501 5.38329C416.04 3.83059 413.495 2.22507 410.635 2.20345C407.682 2.16201 405.161 3.8034 402.67 5.3717L401.606 6.04132C398.983 7.69564 396.01 9.57101 392.435 9.5973C388.785 9.5866 385.785 7.7257 383.125 6.05043L382.065 5.38373C379.604 3.83035 377.059 2.22485 374.198 2.20324C374.179 2.20324 374.159 2.20324 374.14 2.20324C371.266 2.20324 368.708 3.81385 366.232 5.37146L365.171 6.03953C362.547 7.69451 359.574 9.57054 355.998 9.59706C352.364 9.55338 349.349 7.72481 346.688 6.05022L345.628 5.38283C343.166 3.83013 340.621 2.22461 337.761 2.20299C334.924 2.20656 332.287 3.80361 329.796 5.37124L328.732 6.04086C326.109 7.69518 323.136 9.57054 319.561 9.59684C315.954 9.58614 312.912 7.72526 310.251 6.05L309.189 5.38193C306.728 3.82923 304.184 2.22438 301.324 2.20299C298.414 2.16154 295.851 3.80294 293.359 5.37124L292.297 6.03931C289.674 7.69429 286.701 9.57032 283.124 9.59684C283.098 9.59862 283.072 9.59863 283.047 9.59863Z" fill="#FFE75F"/>
</svg>
