<svg width="268" height="324" viewBox="0 0 268 324" fill="none" xmlns="http://www.w3.org/2000/svg">
<path d="M104.473 303.749C100.983 308.506 99.7063 310.846 95.9988 315.9C93.9496 318.693 85.0226 323.325 95.0083 323.325C103.064 323.325 110.815 324 118.779 324H147.282C149.845 324 155.4 323.608 152.234 321.45C150.888 320.532 148.751 318.987 146.952 318.637C139.632 317.212 136.607 314.576 136.607 309.299C136.607 302.248 134.626 295.339 134.626 288.261C134.626 275.114 136.992 262.384 139.524 249.446C140.92 242.306 138.594 234.904 134.131 228.482C129.94 222.453 121.802 225.115 114.817 227.62C104.708 231.246 108.875 247.292 108.875 253.796V289.723C108.875 295.018 107.95 299.009 104.473 303.749Z" fill="#FF8B6B"/>
<path d="M110.285 236.41C114.027 235.474 118.454 236.077 122.301 236.077C126.552 236.077 131.978 236.742 136.277 236.742C139.607 236.742 141.91 236.796 144.115 239.552C144.891 240.522 145.42 242.016 146.259 243.064C147.463 244.57 148.721 245.657 150.252 246.873C154.122 249.946 157.322 254.595 162.896 253.047C169.559 251.196 174.78 246.278 180.606 242.732C188.455 237.954 196.353 240.07 204.822 240.07C212.706 240.07 222.788 239.503 228.04 232.749C233.086 226.262 219.407 220.073 216.136 217.295C211.569 213.418 209.481 207.681 209.481 201.841C209.481 196.831 208.419 190.207 212.143 186.165C215.969 182.011 221.515 179.383 226.783 177.55C234.625 174.823 242.544 172.246 249.706 167.901C261.033 161.028 270.76 149.23 266.047 135.587L265.902 135.166C262.813 126.217 259.57 116.825 250.039 113.33C245.195 111.555 239.584 109.71 235.287 106.823C230.485 103.597 223.155 100.524 222.199 94.0682C220.339 81.5114 234.772 73.006 236.026 61.0893C237.499 47.1017 232.445 34.6021 219.019 28.776C211.826 25.6544 205.616 23.0584 197.65 23.9327C187.851 25.0082 178.875 27.9788 169.551 30.9573C160.876 33.7285 134.248 40.5567 130.435 26.4468C129.344 22.4112 129.321 18.1863 127.255 14.431C124.608 9.6175 118.008 4.25712 113.132 1.97146C102.007 -3.24323 90.4067 2.86783 80.8928 8.92216C69.2162 16.3527 57.0643 24.411 46.8418 33.7672C40.7762 39.3187 34.63 47.4616 32.8664 55.6915C31.689 61.1864 31.6464 67.5594 35.7872 71.7002C40.1402 76.0532 43.3854 77.592 42.0724 84.3446C40.6274 91.776 38.0706 98.5797 34.3083 105.123C29.6056 113.301 22.088 119.952 16.5249 127.565C11.6704 134.208 3.59207 141.051 0.9598 149.045C-0.900328 154.694 0.516139 162.623 0.516139 168.566C0.516139 178.692 8.64114 182.387 14.4915 189.344C19.781 195.635 19.4327 202.83 15.3049 209.975C12.4602 214.898 8.74671 221.663 10.6464 227.573C12.5028 233.349 17.0712 235.411 22.4774 235.411C32.7792 235.411 42.8587 234.572 52.0548 229.422C59.4723 225.268 67.753 225.429 76.0495 225.429C83.3187 225.429 91.4714 227.096 97.678 231.086C102.435 234.143 103.683 238.06 110.285 236.41Z" fill="#30BF7A"/>
</svg>
