<svg width="44" height="29" viewBox="0 0 44 29" fill="none" xmlns="http://www.w3.org/2000/svg">
<path fill-rule="evenodd" clip-rule="evenodd" d="M10.9392 10.1257C4.85049 10.1875 0 11.2966 0 12.6557C0 13.7495 3.14102 14.6813 7.54065 15.0357C2.78335 16.7897 -0.161241 18.8901 0.651628 20.1577C1.51219 21.4996 6.30079 21.4663 11.9016 20.1967C9.68048 23.6193 9.26856 26.5853 11.1235 27.2601C12.961 27.9286 16.4455 26.1385 19.5588 23.1009C21.1398 26.2779 23.463 28.3892 25.3944 28.1403C27.4042 27.8813 28.3722 25.1459 27.9321 21.6048C32.6018 24.1888 37.2082 25.3924 38.746 24.3152C40.2531 23.2594 38.3177 20.3597 34.3593 17.451C39.5403 17.78 43.5384 17.1919 43.963 15.8841C44.3924 14.5612 41.0347 12.906 36.0166 11.7833C40.2749 10.537 42.9598 8.9524 42.4762 7.75209C41.8309 6.15055 35.7864 5.83231 28.914 7.02386C30.3923 3.49328 30.2034 0.578544 28.2549 0.0754044C25.9027 -0.531972 21.8772 2.60499 19.2635 7.082C19.179 7.22668 19.0971 7.37098 19.0177 7.51481C16.4022 4.02237 13.0714 1.78149 11.0498 2.32548C8.95871 2.88818 8.9765 6.24029 10.9392 10.1257Z" fill="#FFE875"/>
</svg>
