<svg width="313" height="201" viewBox="0 0 313 201" fill="none" xmlns="http://www.w3.org/2000/svg">
<mask id="path-1-inside-1_1_178" fill="white">
<path fill-rule="evenodd" clip-rule="evenodd" d="M77.8167 128.97C34.5044 128.531 0 120.641 0 110.973C0 103.192 22.3447 96.5639 53.6428 94.0429C19.8003 81.5655 -1.14713 66.6235 4.6354 57.6064C10.7571 48.0604 44.8216 48.2975 84.664 57.3288C68.8637 32.9819 65.9335 11.8829 79.1285 7.0825C92.2 2.32705 116.987 15.0611 139.134 36.6691C150.381 14.0692 166.907 -0.949231 180.646 0.821358C194.943 2.66392 201.829 22.122 198.699 47.3117C231.917 28.93 264.686 20.3677 275.625 28.0308C286.347 35.5412 272.578 56.1693 244.419 76.861C281.275 74.5202 309.717 78.7038 312.737 88.0075C315.792 97.4179 291.906 109.193 256.209 117.179C286.502 126.045 305.601 137.317 302.161 145.856C297.571 157.248 254.572 159.512 205.684 151.036C216.2 176.151 214.856 196.886 200.995 200.465C184.263 204.786 155.627 182.47 137.034 150.622C136.433 149.593 135.85 148.566 135.285 147.543C116.679 172.387 92.9847 188.328 78.6041 184.459C63.7286 180.456 63.8551 156.61 77.8167 128.97Z"/>
</mask>
<path d="M77.8167 128.97L80.4945 130.323L82.6684 126.019L77.8472 125.971L77.8167 128.97ZM53.6428 94.0429L53.8836 97.0333L54.6806 91.2282L53.6428 94.0429ZM4.6354 57.6064L7.16074 59.2259V59.2259L4.6354 57.6064ZM84.664 57.3288L84.0008 60.2546L91.1978 61.886L87.1805 55.6957L84.664 57.3288ZM79.1285 7.0825L80.1542 9.90173L79.1285 7.0825ZM139.134 36.6691L137.039 38.8163L139.985 41.6913L141.82 38.0057L139.134 36.6691ZM180.646 0.821358L180.262 3.79675V3.79675L180.646 0.821358ZM198.699 47.3117L195.721 46.9418L194.995 52.7899L200.151 49.9367L198.699 47.3117ZM275.625 28.0308L273.904 30.4879L275.625 28.0308ZM244.419 76.861L242.643 74.4435L234.395 80.5037L244.609 79.855L244.419 76.861ZM312.737 88.0075L309.884 88.9338V88.9338L312.737 88.0075ZM256.209 117.179L255.554 114.252L255.367 120.058L256.209 117.179ZM302.161 145.856L304.943 146.977L302.161 145.856ZM205.684 151.036L206.197 148.08L200.802 147.145L202.917 152.195L205.684 151.036ZM200.995 200.465L200.245 197.56L200.995 200.465ZM137.034 150.622L134.443 152.135V152.135L137.034 150.622ZM135.285 147.543L137.911 146.093L135.666 142.029L132.883 145.745L135.285 147.543ZM78.6041 184.459L79.3837 181.562L78.6041 184.459ZM77.8472 125.971C56.3359 125.752 37.1092 123.683 23.34 120.509C16.4312 118.917 11.061 117.083 7.49033 115.161C5.70286 114.198 4.50992 113.289 3.79673 112.497C3.09946 111.722 3 111.226 3 110.973H-3C-3 113.137 -2.0212 115.002 -0.662322 116.512C0.680632 118.003 2.52173 119.3 4.6458 120.444C8.8982 122.733 14.8612 124.712 21.9925 126.356C36.3036 129.654 55.9852 131.749 77.7863 131.97L77.8472 125.971ZM3 110.973C3 110.564 3.32053 109.475 5.66597 107.881C7.89707 106.366 11.3482 104.835 15.973 103.401C25.1812 100.546 38.3519 98.2843 53.8836 97.0333L53.4019 91.0526C37.6356 92.3225 23.9849 94.6354 14.1962 97.6702C9.32257 99.1812 5.23141 100.924 2.29481 102.918C-0.527441 104.835 -3 107.492 -3 110.973H3ZM54.6806 91.2282C37.8871 85.0366 24.481 78.2972 16.0556 72.1091C11.8153 68.9948 9.05935 66.1801 7.68203 63.8315C6.35623 61.5707 6.52656 60.2148 7.16074 59.2259L2.11006 55.987C-0.147025 59.5066 0.473284 63.3998 2.50636 66.8667C4.48792 70.2457 7.99979 73.637 12.5039 76.945C21.5671 83.6015 35.5559 90.5719 52.605 96.8577L54.6806 91.2282ZM7.16074 59.2259C8.05161 57.8367 10.3668 56.3058 14.853 55.1748C19.1996 54.079 25.0059 53.5036 32.0055 53.5011C45.9819 53.4962 64.2277 55.7725 84.0008 60.2546L85.3272 54.403C65.2579 49.8538 46.5503 47.496 32.0034 47.5011C24.7414 47.5037 18.3936 48.0945 13.3863 49.3568C8.5186 50.584 4.28006 52.6031 2.11006 55.987L7.16074 59.2259ZM87.1805 55.6957C79.4089 43.7202 74.9849 32.8046 74.0021 24.5222C73.5118 20.3905 73.9027 17.1265 74.9511 14.7425C75.9595 12.4492 77.6342 10.8185 80.1542 9.90173L78.1029 4.26327C74.0253 5.74671 71.1181 8.55348 69.4587 12.3272C67.8391 16.0102 67.4759 20.4427 68.0439 25.2292C69.1776 34.7832 74.1188 46.5904 82.1475 58.962L87.1805 55.6957ZM80.1542 9.90173C85.4604 7.9713 93.9339 9.45583 104.388 14.6737C114.651 19.7958 126.136 28.1785 137.039 38.8163L141.229 34.5218C129.985 23.5517 118.003 14.7633 107.068 9.30527C96.3241 3.94302 85.8681 1.43825 78.1029 4.26327L80.1542 9.90173ZM141.82 38.0057C147.314 26.9653 154.039 17.9043 160.933 11.8624C167.892 5.76354 174.621 3.06966 180.262 3.79675L181.029 -2.15403C172.932 -3.19754 164.529 0.7325 156.978 7.35015C149.362 14.0248 142.201 23.773 136.448 35.3325L141.82 38.0057ZM180.262 3.79675C185.923 4.52627 190.515 8.73855 193.401 16.3725C196.293 24.0194 197.248 34.6557 195.721 46.9418L201.676 47.6817C203.279 34.7781 202.356 23.0904 199.014 14.2502C195.666 5.39703 189.666 -1.041 181.029 -2.15403L180.262 3.79675ZM200.151 49.9367C216.59 40.8402 232.846 34.2157 246.255 30.8122C252.964 29.1092 258.866 28.2371 263.669 28.2256C268.545 28.2139 271.909 29.0905 273.904 30.4879L277.346 25.5737C273.872 23.1395 269.038 22.2127 263.655 22.2256C258.199 22.2387 251.781 23.2193 244.779 24.9966C230.764 28.554 214.026 35.4015 197.246 44.6868L200.151 49.9367ZM273.904 30.4879C275.636 31.7013 276.399 33.3401 276.239 35.7177C276.065 38.3011 274.77 41.7243 272.084 45.8724C266.741 54.1235 256.581 64.2011 242.643 74.4435L246.195 79.2785C260.416 68.8293 271.219 58.247 277.12 49.1335C280.056 44.5993 281.953 40.164 282.225 36.1207C282.511 31.8716 280.975 28.1155 277.346 25.5737L273.904 30.4879ZM244.609 79.855C262.907 78.6929 278.994 79.1606 290.797 81.0306C296.713 81.9679 301.409 83.2358 304.732 84.7436C308.176 86.3066 309.529 87.8419 309.884 88.9338L315.591 87.0813C314.435 83.5213 311.101 81.0448 307.211 79.2798C303.2 77.4597 297.915 76.0836 291.736 75.1046C279.349 73.142 262.788 72.6884 244.229 73.8671L244.609 79.855ZM309.884 88.9338C310.161 89.7863 310.049 91.1784 308.014 93.3722C305.995 95.5483 302.539 97.9612 297.644 100.454C287.904 105.413 273.278 110.286 255.554 114.252L256.864 120.107C274.838 116.086 290.003 111.078 300.367 105.801C305.523 103.175 309.697 100.381 312.413 97.4528C315.113 94.5426 316.841 90.9339 315.591 87.0813L309.884 88.9338ZM255.367 120.058C270.395 124.457 282.457 129.401 290.265 134.196C294.191 136.608 296.833 138.856 298.284 140.808C299.704 142.72 299.707 143.918 299.378 144.734L304.943 146.977C306.334 143.524 305.24 140.111 303.1 137.23C300.99 134.391 297.61 131.666 293.405 129.084C284.95 123.892 272.316 118.767 257.052 114.3L255.367 120.058ZM299.378 144.734C299.104 145.413 298.442 146.269 297.043 147.197C295.65 148.122 293.693 149.007 291.139 149.797C286.029 151.377 278.969 152.442 270.374 152.901C253.216 153.817 230.476 152.29 206.197 148.08L205.172 153.992C229.78 158.258 252.983 159.838 270.694 158.892C279.533 158.421 287.139 157.314 292.911 155.529C295.797 154.637 298.334 153.543 300.362 152.196C302.384 150.854 304.069 149.146 304.943 146.977L299.378 144.734ZM202.917 152.195C208.07 164.502 210.19 175.457 209.492 183.569C208.798 191.647 205.464 196.212 200.245 197.56L201.745 203.37C210.387 201.138 214.656 193.546 215.47 184.083C216.281 174.655 213.814 162.685 208.451 149.877L202.917 152.195ZM200.245 197.56C196.859 198.434 192.59 198.022 187.603 196.167C182.639 194.32 177.176 191.12 171.556 186.74C160.317 177.983 148.752 164.745 139.625 149.11L134.443 152.135C143.908 168.348 155.958 182.192 167.868 191.473C173.823 196.113 179.819 199.673 185.511 201.79C191.18 203.899 196.765 204.656 201.745 203.37L200.245 197.56ZM139.625 149.11C139.036 148.101 138.464 147.095 137.911 146.093L132.659 148.993C133.235 150.038 133.83 151.085 134.443 152.135L139.625 149.11ZM132.883 145.745C123.745 157.947 113.413 167.882 103.712 174.262C93.8485 180.748 85.2838 183.149 79.3837 181.562L77.8246 187.356C86.3051 189.638 96.7778 186.003 107.008 179.275C117.4 172.441 128.219 161.983 137.686 149.341L132.883 145.745ZM79.3837 181.562C73.8429 180.071 70.4739 174.861 70.3964 165.553C70.3192 156.283 73.6382 143.896 80.4945 130.323L75.139 127.618C68.0336 141.684 64.3086 155.04 64.3966 165.603C64.4843 176.129 68.4899 184.844 77.8246 187.356L79.3837 181.562Z" fill="#FFE875" mask="url(#path-1-inside-1_1_178)"/>
<path fill-rule="evenodd" clip-rule="evenodd" d="M33.5366 108.735C33.5366 116.268 60.4206 122.416 94.1672 122.758C83.2891 144.293 83.1905 162.872 94.7807 165.991C105.985 169.006 124.447 156.586 138.943 137.229C139.384 138.026 139.838 138.826 140.306 139.628C154.793 164.442 177.105 181.829 190.142 178.463C200.941 175.674 201.988 159.519 193.795 139.95C231.885 146.554 265.388 144.791 268.964 135.914C271.644 129.261 256.763 120.478 233.161 113.571C260.975 107.348 279.585 98.1738 277.205 90.8418C274.852 83.5928 252.692 80.3331 223.975 82.157C245.915 66.0351 256.642 49.9628 248.289 44.1111C239.766 38.1404 214.234 44.8116 188.352 59.1337C190.791 39.5072 185.426 24.3466 174.286 22.911C163.582 21.5314 150.705 33.2329 141.942 50.8416C124.687 34.0058 105.374 24.0841 95.1893 27.7893C84.9084 31.5295 87.1914 47.9687 99.5022 66.9385C68.4591 59.9018 41.918 59.7171 37.1482 67.1548C32.6428 74.1805 48.9639 85.8225 75.3322 95.5443C50.9464 97.5084 33.5366 102.673 33.5366 108.735ZM96.5524 103.432L96.6964 106H104.664C104.472 103.376 104.112 100.616 103.584 97.7201C103.056 94.8081 102.656 92.8401 102.384 91.8161C102.112 90.7921 101.888 89.9921 101.712 89.4161H90.3364L89.7364 91.6001C89.3204 93.0561 88.8644 95.1681 88.3684 97.9361C87.8724 100.688 87.5444 103.376 87.3844 106H94.9444L95.0884 103.432H96.5524ZM95.2564 101.224L95.4484 97.4801H96.2164L96.3844 101.224H95.2564ZM121.682 89.4161H114.338V106H121.922V101.152L123.194 106H130.586V89.4161H123.194V94.3601L121.682 89.4161ZM140.626 89.4161V106H148.882V89.4161H140.626ZM167.178 89.4161H158.922V106H169.626V99.8321H167.178V89.4161ZM189.545 89.1761H187.553C184.673 89.1761 182.569 89.8561 181.241 91.2161C179.929 92.5761 179.273 94.7121 179.273 97.6241C179.273 100.536 179.937 102.704 181.265 104.128C182.593 105.536 184.689 106.24 187.553 106.24H189.545C192.409 106.24 194.497 105.536 195.809 104.128C197.137 102.704 197.801 100.536 197.801 97.6241C197.801 94.7121 197.145 92.5761 195.833 91.2161C194.521 89.8561 192.425 89.1761 189.545 89.1761ZM187.865 99.8561V97.0721C187.865 96.8801 187.921 96.7201 188.033 96.5921C188.161 96.4641 188.321 96.4001 188.513 96.4001C188.721 96.4001 188.889 96.4641 189.017 96.5921C189.161 96.7201 189.233 96.8801 189.233 97.0721V99.8561C189.233 100.064 189.161 100.232 189.017 100.36C188.889 100.488 188.721 100.552 188.513 100.552C188.321 100.552 188.161 100.488 188.033 100.36C187.921 100.232 187.865 100.064 187.865 99.8561ZM216.635 99.8321V96.9041H223.091V89.8961L222.299 89.7281C221.755 89.6161 220.923 89.5041 219.803 89.3921C218.683 89.2801 217.539 89.2241 216.371 89.2241C213.427 89.2241 211.211 89.8961 209.723 91.2401C208.235 92.5841 207.491 94.6881 207.491 97.5521C207.491 100.416 208.243 102.576 209.747 104.032C211.267 105.488 213.467 106.216 216.347 106.216C219.243 106.216 221.547 106.144 223.259 106V97.9601L217.595 98.1761V99.8321H216.635Z" fill="#E1FF6B"/>
</svg>
