<svg width="141" height="193" viewBox="0 0 141 193" fill="none" xmlns="http://www.w3.org/2000/svg">
<path d="M21.4188 19.1377C21.4188 28.4766 20.4188 39.1878 20.4188 48.6377C20.4188 56.7426 20.4188 64.6112 20.4188 72.6377C20.4188 78.759 20.4188 86.5164 20.4188 92.6377C20.4188 98.2046 18.9369 106.416 18.9369 111.138C18.9369 118.638 18.9369 121.638 18.9369 127.638C18.9369 135.638 17.5703 139.865 17.9188 146.138C18.2526 152.146 17.1052 153.138 17.0229 160.138C16.9713 164.532 17.0229 168.738 17.0229 173.314" stroke="black" stroke-width="3" stroke-linecap="round"/>
<path d="M17.5 173.638C33.7282 173.638 30.6384 175.19 47.1384 175.19C60.1384 175.19 75.1384 176.152 83.6384 177.053C90.6384 177.053 95.6364 177.053 102.138 177.053C104.932 177.053 110.345 177.053 113.138 177.053C116.158 177.053 119.184 175.19 122.116 175.19" stroke="black" stroke-width="3" stroke-linecap="round"/>
<path d="M21.5 18.7604C42.1183 18.7604 57.7856 17.6779 78.3529 18.7604C82.6016 18.984 86.9276 18.7604 91.1818 18.7604C94.3836 18.7604 99.918 18.7604 103.959 19.226C108 19.6915 111.923 19.6915 115.133 19.6915C118.481 19.6915 123.045 19.6915 126.5 19.6915" stroke="black" stroke-width="3" stroke-linecap="round"/>
<path d="M125.841 19.6914C125.841 29.7161 123.978 40.7117 123.978 50.6519C123.978 57.9494 123.254 65.2798 123.254 72.6519C123.254 78.2888 123.978 83.4768 123.978 89.5263C123.978 95.3736 123.047 101.202 123.047 107.218C123.047 113.977 123.047 120.736 123.047 127.496C123.047 132.317 123.254 138.412 123.254 143.532C123.254 148.652 123.978 152.226 123.978 157.152C123.978 162.255 123.978 169.166 123.978 174.652" stroke="black" stroke-width="3" stroke-linecap="round"/>
<path d="M5.72461 2C30.7763 2 55.476 4.79339 80.629 4.79339C90.4231 4.79339 100.217 4.79339 110.011 4.79339C116.605 4.79339 129.917 3.6377 138 4.79339" stroke="black" stroke-width="3" stroke-linecap="round"/>
<path d="M5.72453 2.1377C5.72453 13.6273 5.72453 22.938 5.72453 34.4861C5.72453 46.6543 5.72453 58.9744 5.72453 71.1519C5.72453 77.6027 5.72453 83.2645 5.72453 89.6519C5.72453 96.5828 4.79339 102.363 4.79339 109.287C4.79339 113.185 4.79339 118.349 4.79339 122.152C4.79339 125.657 3.63847 132.152 3.63846 136.652C3.63843 144.652 3.86747 154.968 3.63843 161.152C3.1676 173.864 2 174.507 2 187.295" stroke="black" stroke-width="3" stroke-linecap="round"/>
<path d="M3.8623 187.295C18.0709 187.295 32.3484 189.157 46.6944 189.157C56.543 189.157 67.6384 190.152 77.8873 191.071C88.1384 191.071 96.7251 191.071 106.138 191.071C110.305 191.071 116.478 191.071 120.638 191.071C125.247 191.071 131.409 191.071 136.138 191.071" stroke="black" stroke-width="3" stroke-linecap="round"/>
<path d="M137.945 191.138C137.945 187.827 137.48 183.138 137.48 178.915C137.48 175.152 137.745 168.188 137.48 163.152C137.098 155.909 137.945 148.257 137.945 140.739C137.945 122.29 137.945 103.671 137.945 85.8019C137.945 70.8976 137.945 70.9347 137.945 56.1519C137.945 54.2273 138.876 38.1519 138.876 34.1519C139.638 30.6519 138.876 26.1519 138.876 23.6519C138.876 20.1519 138.876 15.6454 138.876 13.6392C138.876 10.5205 137.945 7.50474 137.945 4.79346" stroke="black" stroke-width="3" stroke-linecap="round"/>
<path d="M126.772 18.76C127.293 14.0689 134.209 9.45483 137.945 7.58643" stroke="black" stroke-width="3" stroke-linecap="round"/>
<path d="M7.58691 2C11.7709 6.70694 18.8566 13.351 21.5 18.6377" stroke="black" stroke-width="3" stroke-linecap="round"/>
<path d="M4.79346 186.364C7.63843 183.152 8 181.638 11 179.638C14 177.638 15.2321 176.29 17 173.638" stroke="black" stroke-width="3" stroke-linecap="round"/>
<path d="M123.638 174.652C126.138 178.152 128.773 180.753 130.638 183.152C132.902 186.062 134.995 187.991 137.014 191.02" stroke="black" stroke-width="3" stroke-linecap="round"/>
</svg>
